PathFileType	4	(X/Y/Z)	C:\Users\Basilio\Documents\Thesis Gigler\squatting_fais\c3dfiles\076\SJ_pre2\markers_experimental.trc
DataRate	CameraRate	NumFrames	NumMarkers	Units	OrigDataRate	OrigDataStartFrame	OrigNumFrames
200.000000	200.000000	4	61	mm	200.000000	910	1456
Frame#	Time	FHD			LBHD			RBHD			C7			T10			CLAV			LSHO			LUUPA			LMUPA			LDUPA			LLEP			LMEP			LRAD			LUL			LRFIN			RSHO			RUPA1			RMUPA			RDUPA			RLEP			RMEP			RRAD			RUL			RUFIN			LASI			RASI			USACR			LSACR			RSACR			LTHI1			LTHI2			LTHI3			LTHI4			LLFC			LMFC			LTIB1			LTIB2			LTIB3			LTIB4			LLMAL			LMMAL			LHEE			LMT1			LMT2			LMT5			RTHI			RTHI2			RTHI3			RTHI4			RLFC			RMFC			RTIB1			RTIB2			RTIB3			RTIB4			RLMAL			RMMAL			RHEE			RMT1			RMT2			RMT5			
		X1	Y1	Z1	X2	Y2	Z2	X3	Y3	Z3	X4	Y4	Z4	X5	Y5	Z5	X6	Y6	Z6	X7	Y7	Z7	X8	Y8	Z8	X9	Y9	Z9	X10	Y10	Z10	X11	Y11	Z11	X12	Y12	Z12	X13	Y13	Z13	X14	Y14	Z14	X15	Y15	Z15	X16	Y16	Z16	X17	Y17	Z17	X18	Y18	Z18	X19	Y19	Z19	X20	Y20	Z20	X21	Y21	Z21	X22	Y22	Z22	X23	Y23	Z23	X24	Y24	Z24	X25	Y25	Z25	X26	Y26	Z26	X27	Y27	Z27	X28	Y28	Z28	X29	Y29	Z29	X30	Y30	Z30	X31	Y31	Z31	X32	Y32	Z32	X33	Y33	Z33	X34	Y34	Z34	X35	Y35	Z35	X36	Y36	Z36	X37	Y37	Z37	X38	Y38	Z38	X39	Y39	Z39	X40	Y40	Z40	X41	Y41	Z41	X42	Y42	Z42	X43	Y43	Z43	X44	Y44	Z44	X45	Y45	Z45	X46	Y46	Z46	X47	Y47	Z47	X48	Y48	Z48	X49	Y49	Z49	X50	Y50	Z50	X51	Y51	Z51	X52	Y52	Z52	X53	Y53	Z53	X54	Y54	Z54	X55	Y55	Z55	X56	Y56	Z56	X57	Y57	Z57	X58	Y58	Z58	X59	Y59	Z59	X60	Y60	Z60	X61	Y61	Z61	

911	4.55	-81.06529998779298	1866.953125	-879.7434692382815	-229.4791564941407	1821.506958007813	-976.4293212890627	-218.6843566894532	1834.762817382813	-824.3157348632815	-296.5767822265626	1710.039672851563	-891.2700195312502	-341.7338562011719	1393.58642578125	-864.1480102539065	-158.377426147461	1633.58544921875	-878.300476074219	-207.5453491210938	1648.764404296875	-1051.922973632813	-203.2892608642579	1492.880126953125	-1175.352172851563	-196.9656829833985	1447.583740234375	-1154.174682617188	-210.4112854003907	1432.431762695313	-1211.465942382813	-226.5878906250001	1383.287475585938	-1239.492431640625	-313.4901123046876	1389.080688476563	-1225.172485351563	-292.6595458984376	1241.001342773438	-1052.718627929688	-249.7307281494141	1245.338989257813	-1016.009887695313	-256.7373657226563	1193.577880859375	-1078.68310546875	-233.8564453125001	1677.31396484375	-719.3385009765626	-316.3508605957032	1568.360229492188	-577.0178833007814	-291.4674377441407	1526.305053710938	-567.5548706054689	-341.7014770507813	1516.592407226563	-535.2164916992189	-353.7183227539063	1450.8203125	-505.0213623046876	-412.3242187500001	1437.456176757813	-569.5657348632814	-308.8554687500001	1262.984619140625	-654.9838256835939	-282.1581115722657	1234.4326171875	-598.7295532226564	-250.5639038085938	1257.33740234375	-671.4061279296876	-184.9268646240235	1204.264282226563	-946.515075683594	-198.5124664306641	1205.972290039063	-739.6929321289064	-346.8197021484376	1292.18017578125	-859.1475830078127	-355.4097595214844	1263.420654296875	-889.2098388671877	-358.3484802246094	1262.023071289063	-831.935241699219	-275.2590942382813	1057.796020507813	-1038.340698242188	-246.3685150146485	977.744079589844	-1048.427978515625	-197.9883575439454	978.4185180664065	-1036.748046875	-276.6902770996094	925.0537719726565	-1041.252319335938	-274.5410461425782	766.0140991210939	-1038.691284179688	-235.2608947753907	744.0656738281251	-928.410339355469	-246.459701538086	609.6051025390626	-996.0173339843752	-278.2540588378907	569.3043212890626	-1068.555297851563	-246.9270172119141	564.9221801757814	-1034.9951171875	-265.4857788085938	484.8477783203126	-1014.837463378906	-342.1060485839844	379.4262084960938	-1075.664916992188	-299.2718505859376	368.7453918457032	-1003.65380859375	-388.5388488769532	378.7291564941407	-1018.229614257813	-234.8773803710938	246.4012298583985	-1049.475952148438	-232.8802337646485	250.0075836181641	-1088.0703125	-264.7297363281251	258.4134826660157	-1132.594360351563	-307.4592285156251	949.7617797851565	-672.3354492187501	-271.9092407226563	893.242126464844	-663.8450317382814	-237.0311889648438	895.642761230469	-665.7830810546876	-297.9030456542969	817.095642089844	-682.9313354492189	-298.9796142578126	756.7349853515626	-688.2562866210939	-245.1893463134766	750.1945800781251	-793.7456665039065	-269.6296081542969	619.1806640625001	-700.2446289062501	-352.7712097167969	548.8287353515626	-694.7318725585939	-306.5238647460938	540.0097656250001	-692.5496215820314	-291.2154541015626	492.2352600097657	-722.6000976562501	-380.8072204589844	363.6496276855469	-715.9652709960939	-329.9042968750001	371.0100402832032	-784.9405517578127	-419.3072814941407	377.6894836425782	-775.2942504882815	-265.9313659667969	243.5790252685547	-761.2980957031251	-270.2365722656251	240.0958709716797	-715.6445312500001	-319.7115478515626	231.6344604492188	-680.4702148437501	
912	4.555	-80.79917907714845	1859.643920898438	-879.5686035156252	-229.4841613769532	1814.155639648438	-976.3035278320315	-218.3108825683594	1827.280029296875	-823.9243774414065	-296.1254272460938	1702.819946289063	-891.2346801757815	-341.9430541992188	1386.529052734375	-863.9265136718752	-157.3767547607422	1625.797729492188	-877.744812011719	-207.7194366455079	1641.399536132813	-1051.866943359375	-204.2004089355469	1485.645751953125	-1175.609985351563	-197.1151580810547	1440.209716796875	-1154.06591796875	-210.2527465820313	1425.369384765625	-1211.62255859375	-226.2400054931641	1375.961303710938	-1239.071044921875	-313.7375488281251	1381.718383789063	-1224.76611328125	-293.1646423339844	1233.83837890625	-1052.353637695313	-248.9696807861329	1238.067138671875	-1015.46240234375	-257.2540283203126	1186.447998046875	-1078.339477539063	-233.4459991455079	1669.868896484375	-719.1104736328126	-316.2915039062501	1560.952026367188	-576.9283447265626	-291.4696044921876	1518.824462890625	-567.3245239257814	-341.7928771972657	1509.263916015625	-535.1195678710939	-353.8986511230469	1443.752197265625	-504.8479614257814	-412.4837951660157	1430.318481445313	-569.4645385742189	-309.3345947265626	1255.595581054688	-654.5938110351564	-282.5863037109376	1226.940185546875	-598.2882080078126	-250.9572906494141	1250.054321289063	-670.9156494140626	-185.4883880615235	1196.850708007813	-946.1626586914065	-199.0579376220704	1198.390869140625	-739.3200073242189	-347.0971374511719	1285.077026367188	-858.6502685546877	-355.5333251953126	1256.462158203125	-888.7078857421877	-358.6725463867188	1255.004272460938	-831.348327636719	-275.2987060546876	1050.548706054688	-1037.736938476563	-246.1250305175782	970.6850585937502	-1047.96337890625	-197.6235809326172	971.5468750000002	-1035.939453125	-276.0941467285157	917.9026489257815	-1041.140502929688	-273.5480957031251	759.1771850585939	-1039.216430664063	-234.5510253906251	736.7282104492189	-928.5657958984377	-245.4447784423829	602.5151367187501	-996.736755371094	-275.6847229003907	562.0958251953126	-1069.224243164063	-245.4682617187501	557.6998291015626	-1035.54345703125	-264.0970153808594	477.5915527343751	-1015.72119140625	-339.9211120605469	372.4480285644532	-1077.349243164063	-298.1653747558594	361.6425781250001	-1004.747009277344	-387.3638000488282	371.1297302246094	-1020.308288574219	-232.7157897949219	239.6555328369141	-1050.716674804688	-230.1932220458985	243.6102752685547	-1089.360595703125	-261.5193176269532	252.3643035888672	-1134.083984375	-307.0967102050782	942.6579589843752	-671.2785644531251	-271.4831542968751	886.3003540039065	-662.5238647460939	-236.5104370117188	888.8728027343752	-664.5357055664064	-297.1449584960938	809.9294433593752	-681.5277099609376	-298.0010986328126	749.6109008789064	-686.6553955078126	-244.2221679687501	743.2187500000001	-792.3218994140627	-268.1069641113282	612.1173095703126	-698.6550903320314	-351.1426696777344	541.6408691406251	-692.7952270507814	-304.9579772949219	532.8812866210939	-690.8069458007814	-290.0671386718751	484.7855529785157	-721.1014404296876	-379.2172241210938	356.4389343261719	-713.8880615234376	-329.6754455566407	363.9476318359376	-783.1820068359377	-418.1019592285157	370.1073913574219	-772.9149169921877	-264.2434997558594	236.8324737548829	-759.4539184570314	-267.8203125000001	233.3184204101563	-713.4057617187501	-317.3413696289063	224.9222106933594	-678.0357666015626	
913	4.56	-80.46617126464845	1852.120483398438	-879.1721801757815	-228.9944915771485	1806.60400390625	-975.9517211914065	-217.9727325439454	1819.561889648438	-823.7824707031252	-295.6271362304688	1695.185302734375	-890.9840087890627	-342.0199584960938	1379.103759765625	-863.6134033203127	-157.1233825683594	1618.027099609375	-877.644958496094	-207.3311462402344	1633.643310546875	-1051.662841796875	-203.9048461914063	1477.948974609375	-1175.131225585938	-197.310531616211	1432.767822265625	-1154.1435546875	-210.4767150878907	1417.645751953125	-1211.544555664063	-226.8843688964844	1368.351806640625	-1238.844970703125	-314.2648620605469	1374.292358398438	-1224.503295898438	-293.6680603027344	1226.590087890625	-1051.982177734375	-249.5521850585938	1230.56640625	-1015.029541015625	-257.9718017578126	1179.171020507813	-1077.999267578125	-233.033920288086	1662.178955078125	-718.9208374023439	-316.0886230468751	1553.432983398438	-576.7857055664064	-291.5240783691407	1510.994262695313	-567.1307983398439	-341.8235778808594	1501.866088867188	-535.0209350585939	-354.0587768554688	1436.562377929688	-504.8345336914064	-412.7033691406251	1423.058715820313	-569.2439575195314	-309.7549133300782	1247.995849609375	-654.3229980468751	-283.3003234863282	1219.438110351563	-597.9563598632814	-251.3433380126954	1242.687133789063	-670.4063720703126	-186.4985656738282	1189.379760742188	-945.7761230468752	-199.6326599121094	1190.36376953125	-739.0886230468751	-347.2986755371094	1277.492797851563	-858.098571777344	-355.7992858886719	1249.089111328125	-888.2564697265627	-358.9604492187501	1247.609741210938	-830.909362792969	-275.3111877441407	1043.007080078125	-1037.252563476563	-245.6528472900391	963.388122558594	-1047.477661132813	-197.3648376464844	964.3272705078127	-1035.280883789063	-275.5070800781251	910.4467773437502	-1041.0087890625	-271.8225708007813	751.6646728515626	-1039.533447265625	-233.6282196044922	729.1932373046876	-928.706970214844	-244.1441345214844	595.0394287109376	-997.2275390625002	-274.2448425292969	555.0811157226564	-1070.283813476563	-243.9837951660157	550.1586303710939	-1036.065673828125	-262.4623107910157	470.0616149902345	-1016.267517089844	-337.8328247070313	365.1255798339844	-1078.973266601563	-297.0865478515626	354.1517639160157	-1005.978637695313	-386.3226928710939	363.2406616210938	-1022.513061523438	-230.4190216064454	233.0490875244141	-1051.764038085938	-227.3883666992188	236.8475036621094	-1090.319091796875	-259.0352783203126	246.0370483398438	-1135.699951171875	-306.8341979980469	935.4040527343752	-670.1832885742189	-271.0153503417969	879.1795043945315	-661.1928710937501	-236.0366668701172	881.603454589844	-663.1967773437501	-296.4350280761719	802.6387329101565	-680.1569824218751	-296.9753112792969	742.2420654296876	-685.0107421875001	-243.9297790527344	735.9373168945314	-791.0505371093752	-266.7106628417969	604.7713623046876	-697.1452636718751	-349.6304016113282	534.2923583984376	-690.9365844726564	-303.2763366699219	525.5477294921876	-688.9005737304689	-288.5682983398438	477.3950195312501	-719.3289184570314	-377.6036376953126	349.2425842285157	-711.6963500976564	-328.2836608886719	356.5907287597657	-781.3442993164065	-416.9763488769532	362.4591674804688	-770.5815429687502	-262.1445617675782	229.8768310546876	-757.1917114257814	-265.6994934082032	226.7068634033204	-711.1022949218751	-314.9092712402344	218.2856445312501	-675.5563354492189	
914	4.565	-80.17517852783205	1844.415649414063	-878.7314453125002	-228.3882751464844	1798.567016601563	-975.7180786132815	-217.6564941406251	1811.566040039063	-823.3653564453127	-294.9966125488282	1687.495971679688	-890.8032226562502	-342.0575561523438	1371.511352539063	-863.3103637695315	-156.6749877929688	1610.019775390625	-877.4053955078127	-206.4175720214844	1625.640625	-1051.308227539063	-204.2120208740235	1470.137573242188	-1175.168212890625	-198.0023193359376	1425.040283203125	-1154.005859375	-210.9740295410157	1410.173950195313	-1211.58935546875	-227.8417358398438	1360.537231445313	-1239.002807617188	-314.6043090820313	1366.786987304688	-1224.25927734375	-293.7485351562501	1218.887817382813	-1051.627685546875	-249.8687744140626	1222.86572265625	-1014.55859375	-258.4107055664063	1171.484375	-1077.706298828125	-232.6354522705079	1654.195068359375	-718.7771606445314	-315.9003601074219	1545.745971679688	-576.5960693359376	-291.4885864257813	1503.348510742188	-567.1381835937501	-341.7442932128907	1494.16357421875	-534.8589477539064	-354.3790893554688	1428.615356445313	-504.6400146484376	-412.9302062988282	1415.445922851563	-569.1696777343751	-310.3352050781251	1240.263793945313	-654.0099487304689	-283.8265380859376	1211.662109375	-597.6572265625001	-251.8667449951172	1234.867431640625	-669.9364624023439	-187.154281616211	1181.546630859375	-945.4487304687502	-199.9361114501954	1183.365600585938	-738.7481079101564	-347.6445007324219	1270.03662109375	-857.762145996094	-356.2753295898438	1241.40234375	-887.8171997070315	-359.3486633300782	1240.208251953125	-830.461364746094	-275.3664245605469	1035.525268554688	-1036.766967773438	-245.1697235107422	955.863952636719	-1047.1005859375	-197.0885925292969	956.9750976562502	-1034.48193359375	-274.7381896972657	902.6437988281252	-1040.9521484375	-270.0213928222657	743.9692382812501	-1040.039794921875	-232.7080230712891	721.3848266601564	-928.8813476562502	-242.4374237060547	587.3265991210939	-997.3701171875002	-272.7141113281251	547.2889404296876	-1070.888793945313	-242.3380279541016	542.5676269531251	-1036.5263671875	-261.5155334472657	462.5593566894532	-1017.357971191406	-336.2273254394532	357.7086486816407	-1080.495727539063	-296.1948852539063	346.5879211425782	-1007.154968261719	-385.368377685547	355.0643920898438	-1024.687622070313	-227.912338256836	226.1657257080079	-1052.806762695313	-224.9174957275391	230.3677368164063	-1091.449951171875	-255.3020172119141	239.3158721923829	-1136.693359375	-306.7145996093751	927.6517333984377	-669.0957641601564	-270.5693664550782	871.552917480469	-659.9542846679689	-235.5477905273438	874.2491455078127	-661.9869995117189	-295.6466064453126	794.9732666015627	-678.7336425781251	-295.8446044921876	734.6892089843751	-683.4281616210939	-243.071762084961	728.2509155273439	-789.3813476562502	-265.5132446289063	597.1622314453126	-695.2529907226564	-348.1879882812501	526.6472167968751	-689.0750122070314	-301.8643493652344	517.9320068359376	-687.0061035156251	-286.8371887207032	470.0322875976564	-717.1541748046876	-375.9762573242188	341.6686706542969	-709.6723022460939	-326.4014892578126	348.9189147949219	-779.1903076171877	-415.8567810058595	354.1871948242188	-768.5488281250002	-260.2360839843751	222.5358428955079	-754.9331054687501	-263.2416687011719	219.7205200195313	-708.8054809570314	-312.4356384277344	211.3376464843751	-672.8386230468751	
